Simulation
nRows=39
nColumns=15
endheader
time  TH_x TH_y TH_z SC_y  SC_z  SC_x  AC_y  AC_z  AC_x  GH_y  GH_z  GH_yy  EL_x  PS_y
1.9499999999999993  0.000000  0.000000  0.000000  -29.272804603098667  10.32773941731451  23.928842720452135  61.65816514682242  11.041520639378497  0.296798918388566  48.277775499243766  59.70932207938278  -44.56980805316228  22.344021391316222  0.000000
1.9889999999999992  0.000000  0.000000  0.000000  -29.040594175329375  9.995999680091142  23.51002653689627  61.475263085063176  10.777958635408467  -0.4447244896063145  48.723908759444804  58.79695272482011  -44.122132090138045  22.555819155670434  0.000000
2.027999999999999  0.000000  0.000000  0.000000  -28.760961695300754  9.610340574913266  23.046248509145357  61.28192688278968  10.478862811318928  -1.2558900393489538  49.208021828105956  57.789286414978925  -43.70347709028447  22.760263577142616  0.000000
2.0669999999999993  0.000000  0.000000  0.000000  -28.43701078366548  9.175433955226842  22.53757362268525  61.07801537487672  10.147267062836834  -2.121165878302232  49.726707241916074  56.700878996015085  -43.31673427457432  22.94252879851599  0.000000
2.1059999999999994  0.000000  0.000000  0.000000  -28.0755424377674  8.697268758848702  21.983275479874212  60.860565787302804  9.788596884586044  -3.025058331592539  50.26487251003642  55.54677181071363  -42.93169773923765  23.091148617219833  0.000000
2.144999999999999  0.000000  0.000000  0.000000  -27.685983026095673  8.181569400108211  21.38150210795056  60.62608222268281  9.410930039804931  -3.9524508698131853  50.79827993617252  54.34190581254384  -42.50006030346025  23.199463151958668  0.000000
2.1839999999999993  0.000000  0.000000  0.000000  -27.28057351989478  7.633042725250482  20.728342702121704  60.3730015111148  9.023936180341135  -4.888121963634263  51.29978918373927  53.10083941993316  -41.97806822034441  23.267971694898698  0.000000
2.2229999999999994  0.000000  0.000000  0.000000  -26.874860899326837  7.055082009786968  20.01617542857633  60.10351731670375  8.63694788075844  -5.815390789732104  51.74469956294757  51.837978828412204  -41.34132238261175  23.30596693882621  0.000000
2.261999999999999  0.000000  0.000000  0.000000  -26.487683488211584  6.451172707118607  19.231969459311834  59.82334135032553  8.257639865994413  -6.712848895668176  52.11117533941744  50.56626344311594  -40.581823199654565  23.330600187999416  0.000000
2.3009999999999993  0.000000  0.000000  0.000000  -26.139546479485677  5.827679065122606  18.35774423638483  59.54018629495545  7.89161639265202  -7.551649920567025  52.374627690696535  49.29423085183129  -39.690120278516034  23.36305685795348  0.000000
2.339999999999999  0.000000  0.000000  0.000000  -25.848669729006193  5.195023471859009  17.374170263544983  59.26080717080103  7.543854183946318  -8.296911919245014  52.50197105018858  48.022024177946655  -38.63731982903458  23.424091414032365  0.000000
2.378999999999999  0.000000  0.000000  0.000000  -25.62661806331606  4.566698549729956  16.26557130770681  58.98820383103094  7.221256204006678  -8.91410732017786  52.452012079312745  46.73998523366842  -37.3715603172116  23.531559277910834  0.000000
2.4179999999999993  0.000000  0.000000  0.000000  -25.476791569825707  3.9562490589531016  15.024457726847471  58.72021188227824  6.933890550174148  -9.376984899946741  52.18277332594387  45.431651695521865  -35.83152431371013  23.700588825210826  0.000000
2.456999999999999  0.000000  0.000000  0.000000  -25.396589180033207  3.373984664076133  13.653736738114345  58.45050960838378  6.693685876935949  -9.673462152596766  51.66063839730996  44.081057705655496  -33.96754595947842  23.944089293250055  0.000000
2.495999999999999  0.000000  0.000000  0.000000  -25.38102390808054  2.8259194036036757  12.166554769759625  58.17168615722935  6.511139014515468  -9.806060419843272  50.864937690931754  42.67909876260441  -31.75696196178808  24.271089600361737  0.000000
2.5349999999999993  0.000000  0.000000  0.000000  -25.424959840891454  2.314397180464065  10.584415532138179  57.87836017940834  6.392117236003614  -9.788957826150435  49.78862772863746  41.226753418897864  -29.20974879598825  24.68285100266425  0.000000
2.573999999999999  0.000000  0.000000  0.000000  -25.523446275731  1.8390531124814449  8.935055323954105  57.56840682649312  6.336598024313371  -9.643780482388694  48.439412775086595  39.73348871932345  -26.36787985538318  25.168388200600564  0.000000
2.612999999999999  0.000000  0.000000  0.000000  -25.67098773592644  1.397989547426473  7.250188425328695  57.242765503000065  6.33901692038514  -9.396359019712333  46.84158257539376  38.21320882820436  -23.30145838943292  25.701790680477842  0.000000
2.6519999999999992  0.000000  0.000000  0.000000  -25.86134162855107  0.9888526769523116  5.564012110780142  56.903563761605064  6.390185065187072  -9.075045936319947  45.03812845271809  36.67863621186987  -20.102082065477383  26.244455858887335  0.000000
2.690999999999999  0.000000  0.000000  0.000000  -26.08778989323021  0.6100396092188975  3.912191138934172  56.55185653399236  6.480055258734452  -8.710413316942462  43.090098155171184  35.13641613929141  -16.872411060964726  26.752394652970427  0.000000
2.729999999999999  0.000000  0.000000  0.000000  -26.3431152179062  0.2617902883095759  2.3313490654227516  56.185669551814776  6.600061290113894  -8.33496606708979  41.07228974484332  33.5843994004278  -13.713301386546703  27.18542928459689  0.000000
2.768999999999999  0.000000  0.000000  0.000000  -26.61958123882452  -0.053305693403073416  0.8582466547842681  55.8002573411693  6.743929675009388  -7.982052115781244  39.06619163396794  32.01262451309713  -10.713288200772729  27.51436723035759  0.000000
2.807999999999999  0.000000  0.000000  0.000000  -26.908058963401427  -0.3313212054744702  -0.47169198049654226  55.390325648643916  6.906599140461701  -7.683570439543083  37.151067938337334  30.40731507890645  -7.942199847834261  27.723008053742053  0.000000
2.846999999999999  0.000000  0.000000  0.000000  -27.197784732884962  -0.5683142378810171  -1.6259141289144223  54.9528508524632  7.081955389670694  -7.466654286218021  35.39380372450691  28.755339044443495  -5.447503203910343  27.807456508142497  0.000000
2.885999999999999  0.000000  0.000000  0.000000  -27.478649145546093  -0.760105847257424  -2.5768274999074703  54.490414343829364  7.259895852972862  -7.3508711178813515  33.83931159697347  27.049689356360638  -3.252272575754221  27.77482434867094  0.000000
2.924999999999999  0.000000  0.000000  0.000000  -27.742181929272736  -0.9033032042315458  -3.30386430910814  54.01370548097186  7.425503330847841  -7.34606704110276  32.500266622137595  25.293120383130052  -1.3513450614068478  27.641591675820052  0.000000
2.963999999999999  0.000000  0.000000  0.000000  -27.981596203843146  -0.9972974000361886  -3.7950790352976296  53.5418337859491  7.559596904267839  -7.45153374724632  31.3482852176269  23.499977673879595  0.2927772140641775  27.432416799166116  0.000000
3.002999999999999  0.000000  0.000000  0.000000  -28.192429025229096  -1.0451732371922278  -4.048986193119269  53.10189231919637  7.641505570724725  -7.656683468406986  30.313436566899927  21.695248343438564  1.745759557605434  27.1769722389186  0.000000
3.041999999999999  0.000000  0.000000  0.000000  -28.373088563666123  -1.0537822204378822  -4.0768641824606835  52.7250492355158  7.65368588862661  -7.942022197232635  29.299664696010087  19.911743453800547  3.084321103107205  26.90413802638221  0.000000
3.080999999999999  0.000000  0.000000  0.000000  -28.52537809080641  -1.0316916661665427  -3.903436981741934  52.439919337772  7.585394826603372  -8.280573074270553  28.221185374930087  18.1864536856061  4.362979654292107  26.63664271971789  0.000000
3.1199999999999988  0.000000  0.000000  0.000000  -28.65402334652753  -0.9874870510293245  -3.5635053929461415  52.26203097347759  7.435348584958833  -8.64290231105162  27.052039585279122  16.55584128966679  5.573184333381089  26.38842805187335  0.000000
3.158999999999999  0.000000  0.000000  0.000000  -28.766081796083885  -0.9288143365960488  -3.096120770863115  52.18656086239869  7.212927601587981  -9.0045114559479  25.86090745830626  15.050402045642588  6.615901395358843  26.16609644364087  0.000000
3.197999999999999  0.000000  0.000000  0.000000  -28.86937373964823  -0.8613945462761047  -2.5413108750333473  52.19119702833207  6.9382139493853545  -9.350158137000667  24.8000047432829  13.690906580781947  7.317944883651154  25.973546643490685  0.000000
3.2369999999999988  0.000000  0.000000  0.000000  -28.96881313354591  -0.7894139906972957  -1.9384192547764976  52.24745813104783  6.638462319514093  -9.675315362304763  24.059340543600626  12.48929998470895  7.48020965873103  25.815573007332056  0.000000
3.275999999999999  0.000000  0.000000  0.000000  -29.06418851618263  -0.7170435648356251  -1.3222933305203013  52.33121283079151  6.339010391343512  -9.980132018924527  23.796049097864667  11.45194825572664  6.949283306658772  25.69786253123769  0.000000
3.3149999999999986  0.000000  0.000000  0.000000  -29.151094862380248  -0.6501674701828788  -0.7191688159540187  52.427917483383744  6.056199957497929  -10.265629133390318  24.092222085353683  10.583211134768673  5.659008728103242  25.624766434833404  0.000000
3.3539999999999988  0.000000  0.000000  0.000000  -29.223757760333843  -0.5963659157389232  -0.14514744570216132  52.53140507938491  5.796619962599547  -10.533107040058074  24.945123437723076  9.886052641311991  3.6395155297324906  25.59880098750853  0.000000
3.392999999999999  0.000000  0.000000  0.000000  -29.27943806979315  -0.562644474305939  0.39062011054019724  52.64017138421438  5.56148423908547  -10.783751995288085  26.285218087564086  9.360509817130229  0.997235807120936  25.621086987751614  0.000000
3.4319999999999986  0.000000  0.000000  0.000000  -29.320766935309166  -0.5525444712822836  0.8828461327074224  52.7526768586775  5.35070824866828  -11.018688710648831  28.00463444688936  9.001880786987764  -2.1147936462224575  25.69291012782543  0.000000
